HIERARCHY
ROOT Hips
{
  OFFSET 0 0 0
  CHANNELS 6 Xposition Yposition Zposition Zrotation Yrotation Xrotation
  JOINT LeftThigh
  {
    OFFSET 8.409438 0 -5.917753
    CHANNELS 3 Zrotation Yrotation Xrotation
    JOINT LeftLeg
    {
      OFFSET 0 0 -42.358652
      CHANNELS 3 Zrotation Yrotation Xrotation
      JOINT LeftFoot
      {
        OFFSET 0 0 -39.357303
        CHANNELS 3 Zrotation Yrotation Xrotation
      }
    }
  }
  JOINT RightThigh
  {
    OFFSET -8.409438 0 -5.917753
    CHANNELS 3 Zrotation Yrotation Xrotation
    JOINT RightLeg
    {
      OFFSET 0 0 -42.358652
      CHANNELS 3 Zrotation Yrotation Xrotation
      JOINT RightFoot
      {
        OFFSET 0 0 -39.357303
        CHANNELS 3 Zrotation Yrotation Xrotation
      }
    }
  }
  JOINT SpineLow
  {
    OFFSET 0 0 4.719101
    CHANNELS 3 Zrotation Yrotation Xrotation
    JOINT SpineMid
    {
      OFFSET 0 0 12.899191
      CHANNELS 3 Zrotation Yrotation Xrotation
      JOINT Chest
      {
        OFFSET 0 0 12.899191
        CHANNELS 3 Zrotation Yrotation Xrotation
        JOINT LeftShoulder
        {
          OFFSET 7.550562 1.41573 9.438202
          CHANNELS 3 Zrotation Yrotation Xrotation
          JOINT LeftArm
          {
            OFFSET 9.155056 0 4.247191
            CHANNELS 3 Zrotation Yrotation Xrotation
            JOINT LeftForearm
            {
              OFFSET 0 0 25.771955
              CHANNELS 3 Zrotation Yrotation Xrotation
              JOINT LeftHand
              {
                OFFSET 0 0 25.197169
                CHANNELS 3 Zrotation Yrotation Xrotation
              }
            }
          }
        }
        JOINT RightShoulder
        {
          OFFSET -7.550562 1.41573 9.438202
          CHANNELS 3 Zrotation Yrotation Xrotation
          JOINT RightArm
          {
            OFFSET -9.155056 0 4.247191
            CHANNELS 3 Zrotation Yrotation Xrotation
            JOINT RightForearm
            {
              OFFSET 0 0 -25.771955
              CHANNELS 3 Zrotation Yrotation Xrotation
              JOINT RightHand
              {
                OFFSET 0 0 -25.197169
                CHANNELS 3 Zrotation Yrotation Xrotation
              }
            }
          }
        }
        JOINT Neck
        {
          OFFSET 0 0 15.101124
          CHANNELS 3 Zrotation Yrotation Xrotation
          JOINT Head
          {
            OFFSET 0 0 11.325843
            CHANNELS 3 Zrotation Yrotation Xrotation
            End Site
            {
              OFFSET 0 0 14.157303
            }
          }
        }
      }
    }
  }
}
MOTION
Frames: 5
Frame Time: 0.0
0.0  93.25843  0.0  -3.441112  -25.644535  -88.758095  36.670494  -23.037482  -39.262656  0.41234  6.608121  41.123893  -3.846381  -0.562328  -1.414825  -24.001573  14.663237  -9.99677  -2.284414  13.171565  25.779927  4.713801  1.134062  -0.611538  1.036303  -0.520174  0.269761  2.827195  -1.433082  0.715024  2.827195  -1.433082  0.715023  -24.446433  17.550245  5.612632  -122.875226  68.25784  -59.633697  -45.573472  5.111329  76.484589  54.274364  -23.090986  6.821172  -2.867822  -10.277843  24.398202  102.349677  35.297318  41.545908  -17.35545  -15.064828  -117.423963  68.755051  -12.564662  -23.424619  10.766723  0.394096  3.451725  8.073091  0.356538  2.58279  
0.0  93.25843  0.0  -3.380473  -25.227619  -88.886715  36.173635  -23.103634  -39.280778  0.338671  6.695532  41.177205  -3.699943  -0.468567  -1.444095  -23.172961  14.737361  -9.327205  -3.041433  13.078319  25.345401  4.510061  1.208277  -0.492415  1.027214  -0.533379  0.331004  2.800852  -1.471663  0.882059  2.800852  -1.471663  0.882059  -24.714297  17.54259  5.615053  -122.201101  68.210483  -58.940168  -45.352701  4.871252  76.830497  54.386844  -23.222706  6.885802  -2.856215  -10.272995  24.281858  102.244985  35.438739  41.473347  -17.348441  -15.139045  -117.209673  68.597837  -12.505201  -22.86236  10.256287  0.382342  3.171315  7.69045  0.34011  2.372853  
0.0  93.25843  0.0  -3.44351  -24.544525  -88.819331  35.596722  -23.142486  -39.545785  0.299478  6.829703  41.245398  -3.449703  -0.427478  -1.406708  -22.535058  14.670198  -8.740982  -3.538086  13.001773  24.91586  4.030972  1.210967  -0.317686  1.003089  -0.552476  0.336248  2.734545  -1.523751  0.89615  2.734545  -1.523751  0.89615  -25.048746  17.629255  5.80749  -121.544597  68.140657  -58.164963  -45.073773  4.442521  77.065254  54.541461  -23.299612  6.890484  -2.914193  -10.255426  24.401296  101.994817  35.68195  41.281572  -17.374311  -15.23277  -117.006424  68.546072  -12.453663  -22.316648  10.009642  0.350472  3.18448  7.505625  0.315129  2.38337  
0.0  93.25843  0.0  -3.450955  -24.108012  -88.716681  35.468101  -23.077291  -39.846823  0.557343  6.650389  41.618963  -3.700294  -0.336123  -1.822308  -21.581922  14.632428  -8.227049  -3.959001  12.964563  24.523922  3.386226  1.095782  -0.124248  1.013325  -0.566112  0.278491  2.763732  -1.558744  0.73748  2.763732  -1.558743  0.73748  -25.13442  17.909146  6.295342  -121.16592  68.085964  -57.570156  -44.695326  3.880967  77.245639  54.720012  -23.330149  6.781861  -3.218132  -10.269178  24.71983  101.92687  35.730444  41.164895  -17.41351  -15.341338  -116.82691  68.496839  -12.429516  -21.847675  9.474146  0.126338  3.29483  7.105171  0.145885  2.469867  
0.0  93.25843  0.0  -3.481674  -23.526176  -88.515239  35.290735  -22.881396  -40.266124  0.723059  6.499701  41.707819  -3.601082  -0.169707  -1.764587  -21.093849  14.502834  -7.861189  -4.422147  12.929577  24.093243  2.948917  1.181426  -0.031051  1.01469  -0.594482  0.158175  2.770169  -1.631258  0.407401  2.770169  -1.631258  0.407401  -25.255927  18.353626  6.862941  -121.254432  68.176654  -57.403386  -44.412922  3.289826  77.244736  54.827935  -23.355062  6.634103  -3.256764  -10.090543  25.414729  101.324592  36.039389  40.666238  -17.431182  -15.378752  -116.690521  68.213416  -12.399653  -21.452844  9.155319  5.6E-4  3.746287  6.866792  0.056567  2.810455  
